<?xml version="1.0" standalone="no"?>
<!DOCTYPE svg PUBLIC "-//W3C//DTD SVG 20010904//EN"
 "http://www.w3.org/TR/2001/REC-SVG-20010904/DTD/svg10.dtd">
<svg version="1.0" xmlns="http://www.w3.org/2000/svg"
 width="500.000000pt" height="500.000000pt" viewBox="0 0 500.000000 500.000000"
 preserveAspectRatio="xMidYMid meet">

<g transform="translate(0.000000,500.000000) scale(0.100000,-0.100000)"
fill="#000000" stroke="none">
<path d="M2323 4780 c-83 -22 -176 -66 -242 -115 -25 -18 -251 -239 -501 -489
l-455 -456 116 0 c138 0 236 -22 342 -76 64 -34 114 -79 462 -424 215 -213
401 -395 415 -404 14 -9 45 -16 74 -16 l50 0 385 383 c213 211 408 399 434
416 114 77 260 121 399 121 l73 0 -445 446 c-245 245 -470 465 -500 488 -167
131 -403 180 -607 126z"/>
<path d="M641 3235 c-287 -288 -324 -331 -375 -433 -89 -177 -88 -428 4 -613
49 -99 83 -139 378 -432 l279 -279 193 2 c215 1 266 8 360 53 58 27 106 71
465 428 286 284 411 402 440 414 99 41 209 38 299 -7 25 -12 188 -167 426
-403 212 -210 405 -395 429 -410 93 -57 140 -67 346 -72 l190 -5 286 289 c285
287 322 330 373 431 88 174 88 430 0 604 -51 101 -88 144 -373 431 l-285 287
-151 0 c-183 0 -260 -12 -345 -52 -58 -27 -106 -71 -460 -424 -450 -447 -452
-449 -590 -449 -140 0 -127 -10 -575 435 -231 229 -419 408 -445 423 -96 54
-130 60 -363 66 l-218 6 -288 -290z"/>
<path d="M2081 1807 c-423 -421 -450 -443 -596 -493 -67 -23 -102 -28 -212
-32 -73 -2 -133 -7 -133 -11 0 -14 917 -919 963 -950 121 -82 249 -121 401
-121 122 0 204 19 316 73 84 40 90 45 568 521 l483 481 -98 6 c-151 10 -260
45 -370 120 -26 17 -221 205 -434 416 l-385 383 -54 0 -54 0 -395 -393z"/>
</g>
</svg>
