<?xml version="1.0" standalone="no"?>
<!DOCTYPE svg PUBLIC "-//W3C//DTD SVG 20010904//EN"
 "http://www.w3.org/TR/2001/REC-SVG-20010904/DTD/svg10.dtd">
<svg version="1.0" xmlns="http://www.w3.org/2000/svg"
 width="500.000000pt" height="500.000000pt" viewBox="0 0 500.000000 500.000000"
 preserveAspectRatio="xMidYMid meet">

<g transform="translate(0.000000,500.000000) scale(0.100000,-0.100000)"
fill="#000000" stroke="none">
<path d="M2419 4601 c-24 -16 -202 -188 -396 -382 -295 -298 -353 -361 -363
-396 -38 -127 83 -239 207 -192 15 5 130 112 256 237 l227 226 0 -1049 c0
-1030 0 -1051 20 -1083 23 -37 71 -69 117 -78 44 -8 121 30 150 75 l23 34 0
1051 0 1050 228 -226 c125 -125 240 -232 255 -237 98 -37 203 27 214 131 4 31
0 55 -12 79 -23 46 -720 745 -767 770 -54 28 -106 25 -159 -10z"/>
<path d="M1215 3336 c-156 -39 -289 -164 -336 -317 -18 -58 -19 -109 -19
-1159 0 -1050 1 -1101 19 -1159 48 -154 175 -274 336 -317 75 -21 2496 -20
2572 0 159 42 286 163 334 317 18 58 19 109 19 1159 0 1050 -1 1101 -19 1159
-50 160 -193 289 -356 321 -39 7 -150 10 -317 8 -241 -3 -258 -4 -284 -24 -51
-37 -68 -70 -68 -128 -1 -59 16 -92 68 -130 26 -20 45 -21 296 -26 295 -5 293
-5 344 -74 21 -27 21 -32 21 -1106 0 -1074 0 -1079 -21 -1106 -11 -15 -33 -37
-48 -48 -27 -21 -31 -21 -1256 -21 -1225 0 -1229 0 -1256 21 -15 11 -37 33
-48 48 -21 27 -21 32 -21 1106 0 1074 0 1079 21 1106 51 69 49 69 344 74 251
5 270 6 296 26 52 38 69 71 68 130 0 58 -17 91 -68 128 -26 20 -42 21 -299 23
-192 1 -287 -2 -322 -11z"/>
</g>
</svg>
